<?xml version="1.0" encoding="utf-8"?>
<!-- Generator: Adobe Illustrator 21.0.0, SVG Export Plug-In . SVG Version: 6.00 Build 0)  -->
<svg version="1.1" id="Layer_1" xmlns="http://www.w3.org/2000/svg" xmlns:xlink="http://www.w3.org/1999/xlink" x="0px" y="0px"
	 viewBox="0 0 198.1 135.9" style="enable-background:new 0 0 198.1 135.9;" xml:space="preserve">
<style type="text/css">
	.st0{fill:#423342;}
</style>
<g>
	<g>
		<path class="st0" d="M18.5,0.2V1h-5.2v38.5h9.3c1.2,0,2.5-0.2,3.7-0.6c1.3-0.4,2.4-1.1,3.5-2.1c1.1-1,2.1-2.2,3-3.7
			c0.9-1.5,1.6-3.4,2.1-5.5h0.7v12.7H0v-0.8h5.2V1H0V0.2H18.5z"/>
		<path class="st0" d="M50.7,16.1v23.4h3.8v0.8H40.1v-0.8h3.8V16.9h-3.8v-0.8H50.7z M44.5,1.2C45.3,0.4,46.2,0,47.3,0
			c1.1,0,2,0.4,2.8,1.2C50.9,2,51.3,2.9,51.3,4c0,1.1-0.4,2-1.2,2.8C49.3,7.6,48.4,8,47.3,8c-1.1,0-2-0.4-2.8-1.2
			C43.7,6,43.3,5.1,43.3,4C43.3,2.9,43.7,2,44.5,1.2z"/>
		<path class="st0" d="M61.9,39.4V16.9h-3.7v-0.8h10.5v5.6h0.1c0.1-0.3,0.4-0.9,0.8-1.5c0.4-0.7,0.9-1.4,1.6-2.1
			c0.7-0.7,1.6-1.3,2.8-1.8c1.1-0.5,2.5-0.8,4.2-0.8c2.5,0,4.4,0.7,5.8,2.1c1.4,1.4,2.1,3.4,2.1,5.9v15.9h3.8v0.8H75.6v-0.8h3.5
			V21.7c0-1.6-0.3-2.7-1-3.5c-0.6-0.7-1.5-1.1-2.6-1.1c-0.9,0-1.8,0.2-2.6,0.6c-0.8,0.4-1.5,1.1-2.2,1.9c-0.6,0.9-1.1,1.9-1.5,3.2
			c-0.4,1.3-0.6,2.8-0.6,4.5v12h3.5v0.8H58.1v-0.8H61.9z"/>
		<path class="st0" d="M94.1,23.8c0.6-1.5,1.5-2.9,2.7-4.1c1.2-1.3,2.6-2.3,4.3-3.1c1.7-0.8,3.7-1.2,5.9-1.2c1.4,0,2.7,0.2,3.9,0.5
			c1.2,0.3,2.2,0.7,3,1.3c0.8,0.5,1.5,1.2,2,2c0.5,0.8,0.7,1.6,0.7,2.6c0,1.2-0.3,2.1-1,2.6c-0.6,0.5-1.5,0.8-2.7,0.8
			c-0.9,0-1.7-0.2-2.4-0.5c-0.7-0.3-1.1-1-1.1-2c0-0.1,0-0.4,0.1-0.8c0.1-0.4,0.2-0.8,0.3-1.2c0.1-0.4,0.2-0.8,0.3-1.2
			c0.1-0.4,0.1-0.6,0.1-0.8c0-0.7-0.3-1.3-1-1.8c-0.7-0.4-1.5-0.6-2.4-0.6c-1.4,0-2.4,0.3-3.2,1c-0.8,0.6-1.4,1.5-1.8,2.6
			c-0.4,1.1-0.7,2.3-0.8,3.7c-0.1,1.4-0.2,2.9-0.2,4.5c0,1.5,0.1,2.9,0.2,4.4c0.1,1.5,0.4,2.8,0.9,4c0.5,1.2,1.2,2.2,2.1,2.9
			c0.9,0.8,2.2,1.1,3.8,1.1c1.5,0,2.8-0.3,3.9-0.8c1.1-0.5,1.9-1.2,2.5-1.9c0.6-0.7,1.1-1.5,1.4-2.2c0.3-0.7,0.5-1.3,0.6-1.6
			l0.8,0.3c-0.2,0.7-0.5,1.4-0.9,2.2c-0.4,0.8-1,1.6-1.7,2.3c-0.8,0.7-1.7,1.3-2.9,1.8c-1.2,0.5-2.7,0.7-4.5,0.7
			c-0.5,0-1.2,0-2.1-0.1c-0.9-0.1-1.8-0.3-2.9-0.6c-1-0.3-2.1-0.8-3.1-1.3c-1.1-0.6-2-1.3-2.9-2.3c-0.9-1-1.6-2.1-2.1-3.5
			c-0.5-1.4-0.8-3-0.8-5C93.2,26.7,93.5,25.3,94.1,23.8z"/>
		<path class="st0" d="M139.4,16.3c1.7,0.7,3.1,1.6,4.4,2.8c1.2,1.2,2.2,2.5,2.9,4.1c0.7,1.6,1,3.2,1,4.9c0,1.8-0.3,3.4-1,5
			c-0.7,1.6-1.7,2.9-2.9,4.1c-1.2,1.2-2.7,2.1-4.4,2.8c-1.7,0.7-3.5,1-5.4,1c-2,0-3.8-0.3-5.4-1c-1.7-0.7-3.1-1.6-4.4-2.8
			c-1.2-1.2-2.2-2.5-2.9-4.1c-0.7-1.6-1-3.2-1-5c0-1.7,0.3-3.4,1-4.9c0.7-1.6,1.7-2.9,2.9-4.1c1.2-1.2,2.7-2.1,4.4-2.8
			c1.7-0.7,3.5-1,5.4-1C135.9,15.3,137.7,15.7,139.4,16.3z M137.4,39.2c0.8-0.7,1.4-1.6,1.8-2.7c0.4-1.1,0.6-2.4,0.7-3.9
			c0.1-1.5,0.1-2.9,0.1-4.4c0-1.5,0-3-0.1-4.4c-0.1-1.4-0.3-2.7-0.7-3.9c-0.4-1.1-1-2-1.8-2.7c-0.8-0.7-2-1-3.4-1
			c-1.5,0-2.6,0.3-3.4,1c-0.8,0.7-1.4,1.6-1.8,2.7c-0.4,1.1-0.6,2.4-0.7,3.9c-0.1,1.4-0.1,2.9-0.1,4.4c0,1.5,0,3,0.1,4.4
			c0.1,1.5,0.3,2.8,0.7,3.9c0.4,1.1,1,2,1.8,2.7c0.8,0.7,2,1,3.4,1C135.4,40.2,136.5,39.9,137.4,39.2z"/>
		<path class="st0" d="M162.4,16.1v4h0.1c0.2-0.4,0.5-0.8,0.9-1.3c0.4-0.5,0.9-1,1.5-1.5c0.6-0.5,1.4-0.9,2.3-1.2
			c0.9-0.3,1.9-0.5,3.2-0.5c1.3,0,2.4,0.1,3.3,0.4c0.9,0.3,1.6,0.6,2.2,1.1c0.6,0.4,1.1,0.9,1.4,1.4c0.4,0.5,0.7,1.1,1,1.6
			c0.6-1,1.2-1.8,1.9-2.4c0.7-0.6,1.4-1,2.1-1.4c0.7-0.3,1.4-0.5,2-0.6c0.6-0.1,1.2-0.1,1.6-0.1c2.1,0,3.8,0.3,5,1
			c1.2,0.6,2,1.4,2.5,2.3c0.5,0.9,0.8,1.8,0.9,2.8c0.1,1,0.1,1.8,0.1,2.5v15.4h3.7v0.8h-13.9v-0.8h3.3V22c0-1.6-0.3-2.8-0.9-3.6
			c-0.6-0.8-1.5-1.3-2.9-1.3c-0.4,0-0.9,0.1-1.5,0.3c-0.6,0.2-1.2,0.6-1.7,1c-0.6,0.5-1,1-1.4,1.8c-0.4,0.7-0.6,1.6-0.6,2.6v16.6
			h3.3v0.8h-13.6v-0.8h3.4V21.6c0-1.7-0.4-2.8-1.1-3.5c-0.7-0.7-1.5-1-2.4-1c-1.5,0-2.8,0.7-3.9,2c-0.3,0.4-0.6,0.8-0.8,1.2
			c-0.2,0.4-0.4,0.8-0.5,1.4c-0.1,0.5-0.2,1.1-0.3,1.7c-0.1,0.7-0.1,1.5-0.1,2.4v13.7h3.3v0.8h-13.9v-0.8h3.7V16.9h-3.7v-0.8H162.4z
			"/>
	</g>
	<g>
		<path class="st0" d="M-0.5,57.3v-0.8h33.3v9.6H32c-0.5-1.4-1.1-2.6-1.7-3.7c-0.6-1.1-1.3-2-2.2-2.8c-0.8-0.8-1.8-1.4-2.9-1.8
			c-1.1-0.4-2.4-0.6-3.9-0.6h-8.5v18.1H16c1.4,0,2.6-0.2,3.5-0.6c1-0.4,1.8-1,2.4-1.7c0.6-0.7,1.2-1.6,1.6-2.6c0.4-1,0.7-2.2,1-3.5
			h0.7v17.5h-0.7c-0.3-1.1-0.6-2.1-0.9-3.2c-0.4-1-0.8-1.9-1.4-2.7c-0.6-0.8-1.3-1.4-2.2-1.8c-0.9-0.5-2-0.7-3.3-0.7h-3.8v19.6h5.2
			v0.8H-0.5v-0.8h5.2V57.3H-0.5z"/>
		<path class="st0" d="M48.7,72.5v4.7h0.1c0.7-1.4,1.6-2.7,2.7-3.7c1.1-1,2.7-1.5,4.5-1.5c1.6,0,2.9,0.4,3.8,1.3
			c1,0.8,1.5,2,1.5,3.5c0,1.1-0.3,2-0.8,2.6c-0.5,0.6-1.4,1-2.6,1c-0.9,0-1.7-0.2-2.4-0.5c-0.7-0.4-1.1-1-1.1-2c0-0.1,0-0.3,0.1-0.6
			c0-0.3,0.1-0.6,0.1-0.9c0.1-0.3,0.1-0.6,0.1-0.9c0-0.3,0.1-0.4,0.1-0.5c0-0.3-0.1-0.5-0.2-0.7c-0.1-0.2-0.2-0.3-0.4-0.5
			c-0.2-0.1-0.4-0.2-0.8-0.2c-0.4,0-0.8,0.2-1.4,0.5c-0.6,0.4-1.1,0.9-1.6,1.5c-0.5,0.7-0.9,1.5-1.3,2.4c-0.4,1-0.5,2-0.5,3.2v14.4
			h4.4v0.8h-15v-0.8h3.7V73.3h-3.7v-0.8H48.7z"/>
		<path class="st0" d="M70.5,85c0,1.4,0.1,2.7,0.2,4.1c0.1,1.4,0.4,2.6,0.9,3.7c0.5,1.1,1.2,2,2.1,2.7c0.9,0.7,2.3,1.1,3.9,1.1
			c1.5,0,2.8-0.3,3.8-0.8c1-0.6,1.9-1.2,2.5-1.9c0.7-0.7,1.1-1.5,1.5-2.2c0.3-0.7,0.5-1.2,0.5-1.6l0.8,0.3c-0.2,0.7-0.5,1.5-1,2.3
			c-0.5,0.8-1.1,1.6-1.9,2.3c-0.8,0.7-1.8,1.3-2.9,1.7c-1.2,0.5-2.6,0.7-4.2,0.7c-2,0-3.8-0.3-5.5-0.9c-1.7-0.6-3.2-1.4-4.4-2.5
			c-1.3-1.1-2.2-2.5-3-4.1c-0.7-1.6-1.1-3.4-1.1-5.4c0-1.6,0.3-3.2,1-4.7c0.7-1.5,1.6-2.9,2.8-4.1c1.2-1.2,2.6-2.1,4.2-2.9
			c1.6-0.7,3.3-1.1,5.1-1.1c1.3,0,2.6,0.2,3.9,0.6c1.3,0.4,2.5,1.1,3.5,1.9c1.1,0.9,1.9,2,2.6,3.3c0.7,1.4,1,3,1,4.9H70.5V85z
			 M79.5,77.9c0-0.4,0-0.9-0.1-1.5c0-0.6-0.2-1.2-0.4-1.8c-0.2-0.6-0.6-1.1-1.1-1.5c-0.5-0.4-1.2-0.6-2.1-0.6c-1.3,0-2.3,0.3-3,0.9
			c-0.7,0.6-1.2,1.4-1.5,2.3c-0.3,0.9-0.6,1.9-0.6,3c-0.1,1.1-0.2,2.1-0.2,3.1h9V77.9z"/>
		<path class="st0" d="M101.8,72.5v23.4h3.8v0.8H91.1v-0.8h3.8V73.3h-3.8v-0.8H101.8z M95.5,57.6c0.8-0.8,1.7-1.2,2.8-1.2
			c1.1,0,2,0.4,2.8,1.2c0.8,0.8,1.2,1.7,1.2,2.8c0,1.1-0.4,2-1.2,2.8c-0.8,0.8-1.7,1.2-2.8,1.2c-1.1,0-2-0.4-2.8-1.2
			c-0.8-0.8-1.2-1.7-1.2-2.8C94.3,59.3,94.7,58.3,95.5,57.6z"/>
		<path class="st0" d="M114.2,65.8c0.6,0.2,1.2,0.2,1.7,0.2s1.1-0.1,1.7-0.2c0.6-0.1,1.2-0.3,1.7-0.6v7.3h6.6v0.8h-6.6v18.9
			c0,0.6,0,1.1,0.1,1.6c0.1,0.5,0.2,0.9,0.4,1.3c0.2,0.4,0.5,0.7,0.9,0.9c0.4,0.2,0.9,0.3,1.5,0.3c0.7,0,1.3-0.1,1.8-0.5
			c0.5-0.3,0.9-0.7,1.3-1.2c0.4-0.5,0.7-1,0.9-1.6c0.2-0.6,0.4-1.2,0.6-1.7l0.8,0.2c-0.2,1.3-0.6,2.3-1.2,3.1
			c-0.5,0.8-1.2,1.4-1.9,1.8c-0.7,0.4-1.4,0.7-2.2,0.8c-0.8,0.1-1.5,0.2-2.3,0.2c-2,0-3.5-0.2-4.5-0.7c-1.1-0.4-1.9-1-2.4-1.7
			c-0.5-0.7-0.8-1.4-0.9-2.2c-0.1-0.8-0.1-1.5-0.1-2.2V73.3h-3.8v-0.8h3.8v-7.3C113.1,65.4,113.6,65.6,114.2,65.8z"/>
		<path class="st0" d="M153.9,97.1c-1,0.1-1.9,0.2-2.8,0.2c-1.9,0-3.3-0.3-4.2-1c-0.9-0.7-1.5-1.6-1.7-2.8H145
			c-0.6,1.5-1.4,2.5-2.5,3c-1.1,0.5-2.6,0.8-4.6,0.8c-0.9,0-1.8-0.1-2.8-0.3c-0.9-0.2-1.8-0.5-2.6-0.9c-0.8-0.4-1.4-1-1.9-1.7
			c-0.5-0.7-0.7-1.6-0.7-2.7c0-1.1,0.2-2,0.6-2.7c0.4-0.7,1-1.4,1.7-1.9c0.7-0.5,1.5-0.9,2.4-1.2c0.9-0.3,1.8-0.6,2.7-0.9
			c1.5-0.5,2.8-0.8,3.7-1.2c1-0.3,1.7-0.7,2.2-1c0.5-0.4,0.9-0.8,1.1-1.2c0.2-0.5,0.3-1,0.3-1.7v-3.4c0-1-0.2-1.9-0.7-2.8
			c-0.5-0.8-1.4-1.2-2.8-1.2c-0.9,0-1.6,0.2-2.3,0.6c-0.6,0.4-1,1.1-1,2.2c0,0.1,0,0.3,0.1,0.6c0,0.3,0.1,0.6,0.1,0.9
			c0,0.3,0.1,0.7,0.1,1c0,0.3,0.1,0.5,0.1,0.6c0,0.6-0.1,1-0.4,1.3c-0.3,0.3-0.6,0.6-0.9,0.7c-0.4,0.2-0.7,0.2-1.1,0.3
			c-0.4,0-0.7,0-1,0c-0.4,0-0.8,0-1.2-0.1c-0.4-0.1-0.7-0.2-1-0.4c-0.3-0.2-0.6-0.5-0.8-0.9c-0.2-0.4-0.3-0.9-0.3-1.5
			c0-1,0.3-1.8,0.8-2.6c0.5-0.8,1.3-1.4,2.2-1.9c0.9-0.5,1.9-0.9,3.1-1.2c1.1-0.3,2.3-0.4,3.6-0.4c1.4,0,2.8,0.1,4,0.3
			c1.3,0.2,2.3,0.6,3.3,1.2c0.9,0.6,1.7,1.4,2.2,2.4c0.5,1,0.8,2.3,0.8,3.9v14c0,0.7,0.1,1.3,0.3,1.9c0.2,0.5,0.7,0.8,1.5,0.8
			c0.5,0,0.9-0.1,1.2-0.3c0.3-0.2,0.6-0.4,0.9-0.8l0.5,0.5C155.6,96.5,154.9,97,153.9,97.1z M144.7,82.7c-0.1,0.2-0.2,0.4-0.4,0.6
			c-0.2,0.2-0.6,0.4-1.1,0.7c-0.7,0.3-1.4,0.7-2.1,1c-0.7,0.3-1.4,0.7-1.9,1.2c-0.6,0.5-1,1.1-1.4,1.8c-0.4,0.7-0.5,1.6-0.5,2.8
			c0,0.5,0,1,0.1,1.6c0.1,0.6,0.2,1.2,0.4,1.7c0.2,0.6,0.6,1,1.1,1.4c0.5,0.4,1.2,0.6,2,0.6c0.5,0,1-0.1,1.4-0.3
			c0.5-0.2,0.9-0.6,1.3-1c0.4-0.5,0.7-1.1,0.9-1.9c0.2-0.8,0.3-1.7,0.3-2.8v-7.4H144.7z"/>
		<path class="st0" d="M160.1,88.5c0.5,1.1,0.9,2.1,1.4,3c0.5,1,1,1.8,1.7,2.6c0.6,0.8,1.4,1.4,2.3,1.8c0.9,0.5,2,0.7,3.3,0.7
			c0.3,0,0.8,0,1.4-0.1c0.6,0,1.1-0.2,1.7-0.5c0.5-0.3,1-0.7,1.4-1.3c0.4-0.6,0.6-1.4,0.6-2.5c0-0.3,0-0.7-0.1-1
			c-0.1-0.4-0.3-0.7-0.6-1.1c-0.3-0.4-0.7-0.7-1.3-1.1c-0.6-0.4-1.4-0.7-2.4-1.1l-4.6-1.7c-0.5-0.2-1.1-0.4-1.7-0.8
			c-0.6-0.3-1.2-0.7-1.7-1.3c-0.5-0.5-0.9-1.2-1.3-1.9c-0.3-0.7-0.5-1.6-0.5-2.6c0-1.1,0.2-2.1,0.7-3.1c0.5-1,1.1-1.8,1.9-2.6
			c0.8-0.7,1.8-1.3,2.9-1.7c1.1-0.4,2.4-0.6,3.7-0.6c0.7,0,1.4,0.1,2,0.2c0.6,0.2,1.2,0.3,1.7,0.5c0.5,0.2,1,0.3,1.4,0.5
			c0.4,0.2,0.7,0.2,0.9,0.2c0.4,0,0.7-0.1,0.8-0.2c0.1-0.1,0.2-0.3,0.3-0.5h0.8v6.9H176c-0.4-0.9-0.8-1.8-1.2-2.6
			c-0.4-0.8-0.9-1.5-1.4-2.2c-0.5-0.6-1.2-1.1-2-1.5c-0.8-0.4-1.8-0.5-2.9-0.5c-1.2,0-2.4,0.3-3.4,1c-1,0.7-1.5,1.6-1.5,2.9
			c0,0.3,0,0.6,0.1,0.9c0.1,0.3,0.2,0.7,0.5,1c0.3,0.4,0.7,0.7,1.2,1.1c0.6,0.4,1.3,0.7,2.3,1l4.8,1.6c2,0.7,3.6,1.7,4.6,2.8
			c1,1.2,1.6,2.6,1.6,4.4c0,1.2-0.3,2.4-0.8,3.3c-0.5,1-1.3,1.8-2.1,2.5c-0.9,0.7-1.9,1.2-3.1,1.6c-1.2,0.4-2.4,0.6-3.6,0.6
			c-0.7,0-1.4-0.1-2.2-0.2c-0.8-0.2-1.5-0.3-2.3-0.5c-0.7-0.2-1.4-0.4-2-0.5c-0.6-0.1-1.1-0.2-1.4-0.2c-0.3,0-0.5,0.1-0.6,0.2
			c-0.1,0.1-0.3,0.3-0.4,0.6h-0.8v-8.2H160.1z"/>
	</g>
</g>
<g>
	<path class="st0" d="M-0.6,129.1h2.1L8,112h0.6l6.5,17.1h2.1v0.3H9.8v-0.3h2.6l-2.5-6.6H4.4l-2.5,6.6h2.6v0.3h-5.1V129.1z
		 M7.2,115.2l-2.6,6.9h5.2L7.2,115.2z"/>
	<path class="st0" d="M24.9,112.2h3.9v16.9h1.8v0.3h-3.8v-2.1h0c-0.1,0.2-0.2,0.4-0.3,0.7c-0.1,0.3-0.3,0.5-0.6,0.8
		c-0.2,0.3-0.6,0.5-0.9,0.7c-0.4,0.2-0.8,0.3-1.4,0.3c-0.7,0-1.4-0.2-2-0.5c-0.6-0.3-1.2-0.7-1.7-1.2c-0.5-0.5-0.9-1.1-1.1-1.8
		c-0.3-0.7-0.4-1.4-0.4-2.1c0-0.7,0.1-1.4,0.4-2.1c0.3-0.7,0.6-1.2,1.1-1.7c0.5-0.5,1-0.9,1.6-1.2c0.6-0.3,1.2-0.4,1.9-0.4
		c0.9,0,1.6,0.2,2.1,0.6c0.5,0.4,0.9,1,1.1,1.6h0v-8.5h-1.8V112.2z M20.8,123.9c0,0.8,0,1.6,0.1,2.3c0,0.7,0.2,1.3,0.4,1.7
		c0.2,0.5,0.5,0.8,0.9,1.1c0.4,0.3,0.9,0.4,1.6,0.4c0.7,0,1.2-0.1,1.6-0.4c0.4-0.3,0.7-0.7,0.9-1.1c0.2-0.5,0.4-1,0.5-1.5
		c0.1-0.6,0.1-1.1,0.1-1.6c0-0.6,0-1.2,0-1.6c0-0.5-0.1-0.9-0.1-1.2c-0.1-0.3-0.2-0.7-0.3-0.9c-0.1-0.3-0.2-0.5-0.4-0.7
		c-0.2-0.3-0.5-0.6-0.9-0.8c-0.4-0.2-0.9-0.3-1.5-0.3c-0.6,0-1,0.1-1.4,0.3c-0.4,0.2-0.6,0.5-0.8,1c-0.2,0.4-0.3,0.9-0.4,1.5
		C20.8,122.5,20.8,123.2,20.8,123.9z"/>
	<path class="st0" d="M30.6,119.2h5.8v0.3h-2l3.1,7.5l3.2-7.5h-2v-0.3h3.6v0.3h-1.3l-4.5,10.7l-4.3-10.7h-1.6V119.2z"/>
	<path class="st0" d="M43.4,124.3c0-0.8,0.2-1.5,0.5-2.2c0.3-0.7,0.8-1.2,1.3-1.7c0.5-0.5,1.1-0.9,1.8-1.1c0.7-0.3,1.3-0.4,1.9-0.4
		c0.6,0,1.3,0.1,1.9,0.4c0.7,0.3,1.3,0.6,1.8,1.1c0.5,0.5,1,1.1,1.3,1.7c0.3,0.7,0.5,1.4,0.5,2.2c0,0.7-0.2,1.5-0.5,2.1
		c-0.3,0.7-0.7,1.2-1.3,1.7c-0.5,0.5-1.1,0.9-1.8,1.2c-0.7,0.3-1.4,0.4-2.1,0.4c-0.7,0-1.4-0.1-2.1-0.4c-0.7-0.3-1.3-0.7-1.8-1.2
		c-0.5-0.5-0.9-1.1-1.3-1.7C43.5,125.7,43.4,125,43.4,124.3z M45.7,124.3c0,1.1,0.1,2,0.3,2.7c0.2,0.7,0.4,1.2,0.7,1.5
		c0.3,0.4,0.6,0.6,1,0.7c0.4,0.1,0.8,0.2,1.2,0.2c0.4,0,0.8-0.1,1.2-0.2c0.4-0.1,0.7-0.3,1-0.7c0.3-0.4,0.5-0.9,0.7-1.5
		c0.2-0.7,0.3-1.6,0.3-2.7c0-1-0.1-1.8-0.2-2.4c-0.1-0.6-0.3-1.2-0.6-1.6c-0.3-0.4-0.6-0.7-1-0.9c-0.4-0.2-0.9-0.3-1.4-0.3
		c-0.5,0-1,0.1-1.4,0.3c-0.4,0.2-0.7,0.5-1,0.9c-0.3,0.4-0.5,0.9-0.6,1.6C45.8,122.5,45.7,123.3,45.7,124.3z"/>
	<path class="st0" d="M56.6,127.8c0-0.4,0.1-0.8,0.2-1.1c0.2-0.3,0.4-0.6,0.6-0.8c0.2-0.2,0.5-0.4,0.7-0.6c0.3-0.1,0.5-0.3,0.7-0.4
		c-0.9-0.6-1.4-1.5-1.4-2.6c0-0.6,0.1-1.1,0.4-1.5c0.3-0.4,0.6-0.8,1-1.1c0.4-0.3,0.9-0.5,1.4-0.7c0.5-0.2,1-0.2,1.4-0.2
		c0.7,0,1.3,0.1,1.8,0.4c0.5,0.3,0.9,0.5,1.1,0.8c0.2-0.3,0.4-0.6,0.8-0.8c0.3-0.3,0.8-0.4,1.3-0.4c0.3,0,0.6,0.1,0.9,0.2
		c0.3,0.1,0.4,0.4,0.4,0.9c0,0.3-0.1,0.5-0.3,0.6c-0.2,0.1-0.4,0.2-0.6,0.2c-0.2,0-0.4-0.1-0.5-0.2c-0.1-0.1-0.2-0.3-0.3-0.4
		c-0.1-0.1-0.1-0.3-0.2-0.4c-0.1-0.1-0.2-0.2-0.4-0.2s-0.3,0.1-0.5,0.2c-0.2,0.1-0.3,0.3-0.4,0.5c0.1,0.2,0.3,0.4,0.5,0.8
		c0.2,0.4,0.3,0.9,0.3,1.4c0,0.5-0.1,0.9-0.4,1.3c-0.2,0.4-0.6,0.7-0.9,1c-0.4,0.3-0.8,0.5-1.4,0.7c-0.5,0.2-1,0.3-1.6,0.3
		c-0.6,0-1-0.1-1.5-0.2c-0.4-0.2-0.7-0.3-1-0.4c-0.2,0.1-0.4,0.2-0.6,0.3c-0.2,0.1-0.4,0.2-0.5,0.4c-0.2,0.1-0.3,0.3-0.4,0.5
		c-0.1,0.2-0.2,0.4-0.2,0.7c0,0.2,0,0.4,0.1,0.6c0.1,0.2,0.2,0.3,0.4,0.4c0.2,0.1,0.3,0.1,0.5,0.2c0.2,0,0.4,0,0.6,0h3.8
		c1.1,0,2,0.3,2.7,0.8c0.7,0.5,1,1.4,1,2.5c0,0.7-0.2,1.3-0.5,1.9c-0.3,0.6-0.7,1.1-1.2,1.5c-0.5,0.4-1.1,0.7-1.7,1
		c-0.7,0.2-1.3,0.3-2,0.3c-0.6,0-1.2-0.1-1.7-0.2c-0.5-0.1-1-0.3-1.3-0.6c-0.4-0.2-0.7-0.5-0.9-0.9s-0.3-0.7-0.3-1.2
		c0-0.4,0.1-0.8,0.3-1.1c0.2-0.3,0.4-0.6,0.6-0.9c0.3-0.3,0.6-0.5,0.9-0.7c0.3-0.2,0.7-0.4,1-0.5v0c-1,0-1.8-0.2-2.3-0.5
		C56.8,129.3,56.6,128.7,56.6,127.8z M60.2,130.1c-0.2,0.1-0.4,0.3-0.6,0.4c-0.2,0.1-0.4,0.3-0.6,0.5c-0.2,0.2-0.3,0.4-0.4,0.7
		c-0.1,0.3-0.2,0.6-0.2,1c0,0.6,0.1,1,0.3,1.4c0.2,0.4,0.5,0.7,0.8,0.9c0.3,0.2,0.7,0.4,1,0.5c0.4,0.1,0.8,0.1,1.1,0.1
		c0.6,0,1.1-0.1,1.6-0.3c0.5-0.2,0.9-0.4,1.2-0.7c0.3-0.3,0.6-0.6,0.8-1c0.2-0.4,0.3-0.8,0.3-1.2c0-0.9-0.2-1.5-0.7-1.9
		c-0.5-0.4-1.1-0.6-2-0.6H60.2z M64,122.4c0-0.4,0-0.7-0.1-1.1c0-0.4-0.1-0.7-0.3-1c-0.2-0.3-0.4-0.6-0.7-0.8
		c-0.3-0.2-0.7-0.3-1.3-0.3c-0.8,0-1.4,0.2-1.8,0.7c-0.4,0.5-0.6,1.3-0.6,2.4c0,0.5,0,0.9,0.1,1.3c0.1,0.4,0.2,0.7,0.4,1
		c0.2,0.3,0.4,0.5,0.8,0.6c0.3,0.1,0.7,0.2,1.2,0.2c0.8,0,1.4-0.3,1.8-0.8C63.9,124.2,64,123.4,64,122.4z"/>
	<path class="st0" d="M79.3,129.1c-0.2,0.2-0.5,0.3-0.7,0.4c-0.3,0.1-0.6,0.2-1,0.2c-0.8,0-1.3-0.2-1.7-0.5
		c-0.3-0.3-0.6-0.8-0.7-1.4h0c-0.1,0.1-0.2,0.3-0.3,0.5c-0.1,0.2-0.3,0.4-0.5,0.6c-0.2,0.2-0.5,0.4-0.9,0.5
		c-0.4,0.1-0.9,0.2-1.5,0.2c-0.7,0-1.2-0.1-1.6-0.2c-0.4-0.2-0.7-0.3-0.9-0.6c-0.2-0.2-0.4-0.5-0.4-0.8c-0.1-0.3-0.1-0.5-0.1-0.8
		c0-0.6,0.1-1,0.3-1.3c0.2-0.3,0.5-0.6,0.9-0.8c0.4-0.2,0.8-0.4,1.2-0.5c0.4-0.1,0.9-0.3,1.3-0.4c0.5-0.2,1-0.3,1.3-0.5
		c0.3-0.1,0.6-0.3,0.8-0.5c0.2-0.2,0.3-0.4,0.4-0.7c0.1-0.3,0.1-0.7,0.1-1.1c0-0.4,0-0.7-0.1-1c0-0.3-0.1-0.6-0.3-0.8
		c-0.1-0.2-0.3-0.4-0.5-0.5c-0.2-0.1-0.6-0.2-1-0.2c-0.5,0-1,0.1-1.3,0.3c-0.3,0.2-0.5,0.5-0.5,0.9c0,0.3,0,0.5,0.1,0.8
		c0,0.3,0.1,0.5,0.1,0.6c0,0.2-0.1,0.4-0.2,0.6c-0.2,0.2-0.4,0.2-0.7,0.2c-0.5,0-0.9-0.1-1-0.3c-0.1-0.2-0.2-0.4-0.2-0.7
		c0-0.3,0.1-0.7,0.2-1c0.2-0.3,0.4-0.6,0.7-0.8c0.3-0.2,0.7-0.4,1.2-0.6c0.5-0.1,1-0.2,1.6-0.2c0.7,0,1.3,0.1,1.8,0.3
		c0.5,0.2,0.9,0.4,1.2,0.7c0.3,0.3,0.5,0.7,0.6,1c0.1,0.4,0.2,0.8,0.2,1.2v5.9c0,0.5,0.1,0.8,0.2,0.9c0.1,0.2,0.3,0.2,0.6,0.2
		c0.2,0,0.4,0,0.5-0.1c0.2-0.1,0.4-0.2,0.5-0.3L79.3,129.1z M75.2,123.6L75.2,123.6c-0.1,0.2-0.3,0.4-0.8,0.6l-1.8,0.7
		c-0.5,0.2-0.9,0.5-1.2,0.9c-0.3,0.4-0.4,0.8-0.4,1.4c0,0.2,0,0.5,0.1,0.7c0,0.3,0.1,0.5,0.3,0.7c0.1,0.2,0.3,0.4,0.5,0.5
		c0.2,0.1,0.5,0.2,0.9,0.2c0.5,0,1-0.1,1.3-0.3c0.3-0.2,0.6-0.5,0.7-0.8c0.2-0.3,0.3-0.7,0.3-1.1c0.1-0.4,0.1-0.7,0.1-1.1V123.6z"/>
	<path class="st0" d="M87.2,112.2H91v16.9h1.8v0.3H89v-2.1h0c-0.1,0.2-0.2,0.4-0.3,0.7c-0.1,0.3-0.3,0.5-0.6,0.8
		c-0.2,0.3-0.6,0.5-0.9,0.7c-0.4,0.2-0.8,0.3-1.4,0.3c-0.7,0-1.4-0.2-2-0.5c-0.6-0.3-1.2-0.7-1.7-1.2c-0.5-0.5-0.9-1.1-1.1-1.8
		c-0.3-0.7-0.4-1.4-0.4-2.1c0-0.7,0.1-1.4,0.4-2.1c0.3-0.7,0.6-1.2,1.1-1.7c0.5-0.5,1-0.9,1.6-1.2s1.2-0.4,1.9-0.4
		c0.9,0,1.6,0.2,2.1,0.6c0.5,0.4,0.9,1,1.1,1.6h0v-8.5h-1.8V112.2z M83,123.9c0,0.8,0,1.6,0.1,2.3c0,0.7,0.2,1.3,0.4,1.7
		c0.2,0.5,0.5,0.8,0.9,1.1c0.4,0.3,0.9,0.4,1.6,0.4c0.7,0,1.2-0.1,1.6-0.4c0.4-0.3,0.7-0.7,0.9-1.1c0.2-0.5,0.4-1,0.5-1.5
		c0.1-0.6,0.1-1.1,0.1-1.6c0-0.6,0-1.2,0-1.6c0-0.5-0.1-0.9-0.1-1.2c-0.1-0.3-0.2-0.7-0.3-0.9c-0.1-0.3-0.2-0.5-0.4-0.7
		c-0.2-0.3-0.5-0.6-0.9-0.8c-0.4-0.2-0.9-0.3-1.5-0.3c-0.6,0-1,0.1-1.4,0.3c-0.4,0.2-0.6,0.5-0.8,1c-0.2,0.4-0.3,0.9-0.4,1.5
		S83,123.2,83,123.9z"/>
	<path class="st0" d="M94.6,124.3c0-0.8,0.2-1.5,0.5-2.2c0.3-0.7,0.8-1.2,1.3-1.7c0.5-0.5,1.1-0.9,1.8-1.1c0.7-0.3,1.3-0.4,1.9-0.4
		c0.6,0,1.3,0.1,1.9,0.4c0.7,0.3,1.3,0.6,1.8,1.1c0.5,0.5,1,1.1,1.3,1.7c0.3,0.7,0.5,1.4,0.5,2.2c0,0.7-0.2,1.5-0.5,2.1
		c-0.3,0.7-0.7,1.2-1.3,1.7c-0.5,0.5-1.1,0.9-1.8,1.2c-0.7,0.3-1.4,0.4-2.1,0.4c-0.7,0-1.4-0.1-2.1-0.4c-0.7-0.3-1.3-0.7-1.8-1.2
		c-0.5-0.5-0.9-1.1-1.3-1.7C94.8,125.7,94.6,125,94.6,124.3z M97,124.3c0,1.1,0.1,2,0.3,2.7c0.2,0.7,0.4,1.2,0.7,1.5
		c0.3,0.4,0.6,0.6,1,0.7c0.4,0.1,0.8,0.2,1.2,0.2s0.8-0.1,1.2-0.2c0.4-0.1,0.7-0.3,1-0.7c0.3-0.4,0.5-0.9,0.7-1.5
		c0.2-0.7,0.3-1.6,0.3-2.7c0-1-0.1-1.8-0.2-2.4c-0.1-0.6-0.3-1.2-0.6-1.6c-0.3-0.4-0.6-0.7-1-0.9c-0.4-0.2-0.9-0.3-1.4-0.3
		c-0.5,0-1,0.1-1.4,0.3c-0.4,0.2-0.7,0.5-1,0.9c-0.3,0.4-0.5,0.9-0.6,1.6C97.1,122.5,97,123.3,97,124.3z"/>
</g>
</svg>
